<?xml version="1.0" encoding="utf-8"?>
<!-- Generator: Adobe Illustrator 16.0.0, SVG Export Plug-In . SVG Version: 6.00 Build 0)  -->
<!DOCTYPE svg PUBLIC "-//W3C//DTD SVG 1.0//EN" "http://www.w3.org/TR/2001/REC-SVG-20010904/DTD/svg10.dtd">
<svg version="1.0" id="Layer_1" xmlns="http://www.w3.org/2000/svg" xmlns:xlink="http://www.w3.org/1999/xlink" x="0px" y="0px"
	 width="100px" height="100px" viewBox="0 0 100 100" enable-background="new 0 0 100 100" xml:space="preserve">
<path d="M76.667,33.333C76.667,25.97,70.7,20,63.333,20c-1.565,0-3.047,0.319-4.443,0.817C56.514,14.508,50.476,10,43.333,10
	c-9.205,0-16.666,7.461-16.666,16.667C17.461,26.667,10,34.127,10,43.333C10,52.539,17.461,60,26.667,60h50
	C84.03,60,90,54.03,90,46.667C90,39.303,84.03,33.333,76.667,33.333z M76.667,53.333h-50c-5.521,0-10-4.479-10-10
	c0-5.527,4.479-10,10-10h6.666v-6.667c0-5.527,4.477-10,10-10c4.893,0,8.949,3.516,9.814,8.158C51.211,27.139,50,30.082,50,33.333
	h6.667c0-3.685,2.984-6.667,6.666-6.667c3.686,0,6.667,2.982,6.667,6.667v1.849c-3.968,2.312-6.667,6.563-6.667,11.485H70
	C70,42.988,72.985,40,76.667,40s6.666,2.981,6.666,6.667C83.333,50.345,80.349,53.333,76.667,53.333z"/>
<circle cx="23.333" cy="71.667" r="3.333"/>
<circle cx="38.333" cy="71.667" r="3.333"/>
<circle cx="53.333" cy="71.667" r="3.333"/>
<circle cx="68.333" cy="71.667" r="3.333"/>
<circle cx="16.667" cy="86.667" r="3.333"/>
<circle cx="31.667" cy="86.667" r="3.333"/>
<circle cx="46.667" cy="86.667" r="3.333"/>
<circle cx="61.667" cy="86.667" r="3.333"/>
</svg>
