<?xml version="1.0" encoding="iso-8859-1"?>
<!-- Generator: Adobe Illustrator 19.0.0, SVG Export Plug-In . SVG Version: 6.00 Build 0)  -->
<svg version="1.1" id="Layer_1" xmlns="http://www.w3.org/2000/svg" xmlns:xlink="http://www.w3.org/1999/xlink" x="0px" y="0px"
	 viewBox="0 0 512 512" style="enable-background:new 0 0 512 512;" xml:space="preserve">
<path style="fill:#AFF2D8;" d="M471.579,191.326L471.579,191.326c0,59.531-48.258,107.789-107.789,107.789H148.211
	c-59.53,0-107.789-48.258-107.789-107.789l0,0c0-59.53,48.258-107.789,107.789-107.789h4.938
	C166.884,39.807,207.737,8.084,256,8.084l0,0c48.264,0,89.116,31.722,102.852,75.453h4.938
	C423.321,83.537,471.579,131.795,471.579,191.326z"/>
<path style="fill:#87CEB7;" d="M471.576,190.51c0.444,59.905-47.984,108.605-107.786,108.605h-37.726
	c53.822,0,97.407-43.832,97.007-97.747c-0.396-53.489-44.734-96.274-98.225-96.274h-53.046c-6.467,0-11.605-5.696-10.668-12.345
	c0.756-5.369,5.616-9.213,11.038-9.213h13.427c7.777,0,13.072-8.02,9.875-15.11c-12.666-28.092-37.625-49.444-68.035-57.182
	c8.101-2.062,16.588-3.16,25.331-3.16h6.467c47.224,0,86.954,31.978,98.786,75.453h4.416
	C421.872,83.537,471.136,131.076,471.576,190.51z"/>
<path style="fill:#FFE44C;" d="M271.553,356.347h50.157c15.87,0,28.735,12.865,28.735,28.735l0,0
	c0,12.029-3.724,23.763-10.661,33.59l-55.525,78.659c-2.915,4.128-7.652,6.584-12.706,6.584l0,0c-8.59,0-15.553-6.963-15.553-15.553
	V419.12c0-8.59-6.963-15.553-15.553-15.553H190.29c-15.87,0-28.735-12.865-28.735-28.734l0,0c0-12.029,3.724-23.763,10.661-33.59
	l55.525-78.659c2.915-4.128,7.652-6.584,12.706-6.584l0,0c8.59,0,15.553,6.963,15.553,15.553v69.242
	C256,349.383,262.964,356.347,271.553,356.347z"/>
<path style="fill:#FFA000;" d="M350.445,385.081L350.445,385.081c0,12.029-3.724,23.763-10.661,33.591l-55.525,78.659
	c-2.915,4.128-7.652,6.584-12.706,6.584c-8.59,0-15.553-6.963-15.553-15.553v-16.784v-52.458v-78.327
	c0,8.59,6.963,15.553,15.553,15.553h50.157C337.58,356.347,350.445,369.211,350.445,385.081z"/>
<path d="M358.529,385.081c0,13.772-4.198,27-12.141,38.252l-55.526,78.66C286.44,508.26,279.222,512,271.552,512
	c-13.033,0-23.636-10.603-23.636-23.637v-69.242c0-4.118-3.35-7.469-7.469-7.469h-50.157c-20.302,0-36.819-16.517-36.819-36.819
	c0-13.772,4.198-27,12.141-38.252l55.526-78.66c4.422-6.266,11.64-10.006,19.309-10.006c13.034,0,23.637,10.603,23.637,23.637
	v69.242c0,4.118,3.35,7.469,7.469,7.469h16.783c4.466,0,8.084,3.62,8.084,8.084c0,4.465-3.618,8.084-8.084,8.084h-16.784
	c-13.034,0-23.637-10.603-23.637-23.637v-69.242c0-4.118-3.35-7.469-7.469-7.469c-2.423,0-4.703,1.181-6.1,3.161l-55.527,78.66
	c-6.006,8.51-9.182,18.513-9.182,28.929c0,11.387,9.265,20.65,20.65,20.65h50.157c13.034,0,23.637,10.603,23.637,23.637v69.242
	c0,4.118,3.35,7.469,7.469,7.469c2.423,0,4.703-1.181,6.1-3.161l55.527-78.66c6.006-8.51,9.182-18.513,9.182-28.929
	c0-11.387-9.264-20.65-20.65-20.65c-4.466,0-8.084-3.62-8.084-8.084c0-4.465,3.618-8.084,8.084-8.084
	C342.012,348.262,358.529,364.779,358.529,385.081z M177.853,299.116c0-4.465-3.618-8.084-8.084-8.084h-21.558
	c-54.978,0-99.705-44.727-99.705-99.705c0-43.796,28.047-82.031,69.789-95.143c4.26-1.338,6.628-5.876,5.29-10.135
	c-1.337-4.259-5.877-6.628-10.134-5.29c-23.023,7.231-43.686,21.919-58.184,41.359c-15.001,20.117-22.93,44.048-22.93,69.209
	c0,63.893,51.981,115.874,115.874,115.874h21.558C174.235,307.2,177.853,303.58,177.853,299.116z M479.631,188.558
	c-1.395-59.419-49.564-107.248-109.66-108.887l-3.901-0.107C350.539,32.425,306.118,0,256,0
	c-63.892,0-115.874,51.98-115.874,115.874v43.116c0,4.465,3.618,8.084,8.084,8.084s8.084-3.62,8.084-8.084v-43.116
	c0-54.978,44.727-99.705,99.705-99.705c44.875,0,84.439,30.2,96.213,73.441c0.937,3.44,4.016,5.861,7.579,5.958l9.738,0.266
	c51.482,1.404,92.744,42.301,93.936,93.103c0.019,0.794,0.028,1.591,0.028,2.39c0,54.978-44.727,99.705-99.705,99.705h-75.453
	c-4.466,0-8.084,3.62-8.084,8.084c0,4.465,3.618,8.084,8.084,8.084h75.453c63.892,0,115.874-51.98,115.874-115.874
	C479.664,190.401,479.652,189.479,479.631,188.558z"/>
<g>
</g>
<g>
</g>
<g>
</g>
<g>
</g>
<g>
</g>
<g>
</g>
<g>
</g>
<g>
</g>
<g>
</g>
<g>
</g>
<g>
</g>
<g>
</g>
<g>
</g>
<g>
</g>
<g>
</g>
</svg>
